<?xml version="1.0" standalone="no"?>
<svg xmlns="http://www.w3.org/2000/svg" viewBox="0 0 189.071 29" width="189.071" height="29"><g fill="#bba364" color="#bba364" transform="translate(0, 0) scale(0.6041667)"><svg width="48.0" height="48.0" x="0.0" y="0.0" viewBox="0 0 48 48"><path fill="currentColor" fill-rule="evenodd" d="M28 24a4 4 0 1 1-8 0 4 4 0 0 1 8 0M26 0c12.318 1.024 22 11.367 22 24 0 12.505-9.489 22.772-21.631 23.967l-.37.033v-4.018C36.11 42.974 44 34.412 44 24c0-10.296-7.71-18.782-17.655-19.948L26 4.015V0zm-4 0v4.015C11.894 5.023 4 13.586 4 24c0 10.294 7.716 18.78 17.657 19.945l.343.037V48C9.684 46.979 0 36.631 0 24 0 11.367 9.684 1.024 22 0zm-9.82 26c.953 5.672 5.874 10 11.82 10 5.946 0 10.867-4.328 11.82-10h4.041c-.984 7.89-7.7 14-15.861 14-8.156 0-14.876-6.11-15.861-14zM24 16a8 8 0 0 1 8 8 8 8 0 1 1-8-8zm0-8c8.047 0 14.69 5.941 15.816 13.672l.045.328h-4.04c-.954-5.674-5.875-10-11.82-10-5.844 0-10.698 4.178-11.768 9.708L12.18 22H8.14C9.125 14.11 15.844 8 24 8z"></path></svg></g><line x1="41" y1="1" x2="41" y2="28" stroke="#0a1256" stroke-linecap="round"></line><path fill="#0a1256" fill-rule="nonzero" d="M0 1.22L14.18 1.22L14.18 4.99L12.21 4.99L12.04 3.04L8.25 3.04L8.25 16.48L10.16 16.80L10.16 18.28L4.03 18.28L4.03 16.80L5.94 16.48L5.94 3.04L2.14 3.04L1.98 4.99L0 4.99L0 1.22ZM16.69 7.42L14.78 7.09L14.78 5.60L18.75 5.60L18.97 7.44Q19.51 6.47 20.30 5.92Q21.09 5.37 22.11 5.37L22.11 5.37Q22.38 5.37 22.67 5.41Q22.96 5.45 23.11 5.50L23.11 5.50L22.80 7.64L21.49 7.57Q20.58 7.57 19.96 8.00Q19.34 8.43 19.00 9.20L19.00 9.20L19.00 16.48L20.91 16.80L20.91 18.28L14.78 18.28L14.78 16.80L16.69 16.48L16.69 7.42ZM36 18.28L32.98 18.28Q32.87 17.77 32.81 17.36Q32.75 16.95 32.73 16.54L32.73 16.54Q32.06 17.39 31.06 17.96Q30.06 18.53 28.92 18.53L28.92 18.53Q26.94 18.53 25.91 17.56Q24.88 16.59 24.88 14.84L24.88 14.84Q24.88 13.03 26.34 12.05Q27.80 11.07 30.34 11.07L30.34 11.07L32.72 11.07L32.72 9.60Q32.72 8.48 32.02 7.83Q31.31 7.18 30.06 7.18L30.06 7.18Q29.19 7.18 28.53 7.41Q27.87 7.63 27.46 8.02L27.46 8.02L27.21 9.35L25.43 9.35L25.43 6.89Q26.30 6.20 27.53 5.78Q28.76 5.37 30.20 5.37L30.20 5.37Q32.36 5.37 33.69 6.47Q35.03 7.57 35.03 9.62L35.03 9.62L35.03 15.73Q35.03 15.97 35.03 16.21Q35.04 16.44 35.06 16.68L35.06 16.68L36 16.80L36 18.28ZM29.26 16.59L29.26 16.59Q30.41 16.59 31.36 16.04Q32.31 15.49 32.72 14.72L32.72 14.72L32.72 12.63L30.26 12.63Q28.84 12.63 28.01 13.29Q27.19 13.95 27.19 14.88L27.19 14.88Q27.19 15.71 27.70 16.15Q28.22 16.59 29.26 16.59ZM37.58 18.28L37.58 16.80L39.49 16.48L39.49 7.42L37.58 7.09L37.58 5.60L41.55 5.60L41.72 7.49Q42.35 6.48 43.31 5.92Q44.26 5.37 45.48 5.37L45.48 5.37Q47.53 5.37 48.66 6.57Q49.78 7.77 49.78 10.28L49.78 10.28L49.78 16.48L51.69 16.80L51.69 18.28L45.56 18.28L45.56 16.80L47.47 16.48L47.47 10.32Q47.47 8.65 46.81 7.95Q46.15 7.24 44.79 7.24L44.79 7.24Q43.79 7.24 43.03 7.72Q42.26 8.20 41.80 9.04L41.80 9.04L41.80 16.48L43.71 16.80L43.71 18.28L37.58 18.28ZM62.95 6.79L63.07 9.59L61.34 9.59L60.96 8.06Q60.54 7.66 59.90 7.42Q59.26 7.18 58.45 7.18L58.45 7.18Q57.22 7.18 56.63 7.72Q56.03 8.26 56.03 9.02L56.03 9.02Q56.03 9.77 56.55 10.21Q57.08 10.64 58.70 10.98L58.70 10.98Q61.10 11.50 62.27 12.38Q63.45 13.27 63.45 14.75L63.45 14.75Q63.45 16.44 62.08 17.48Q60.71 18.53 58.51 18.53L58.51 18.53Q57.07 18.53 55.92 18.19Q54.77 17.86 53.87 17.23L53.87 17.23L53.86 14.33L55.59 14.33L56.03 16.03Q56.43 16.39 57.11 16.56Q57.80 16.72 58.51 16.72L58.51 16.72Q59.74 16.72 60.44 16.22Q61.14 15.73 61.14 14.92L61.14 14.92Q61.14 14.16 60.56 13.66Q59.98 13.17 58.36 12.81L58.36 12.81Q56.05 12.30 54.88 11.44Q53.71 10.57 53.71 9.09L53.71 9.09Q53.71 7.55 55.03 6.46Q56.34 5.37 58.45 5.37L58.45 5.37Q59.89 5.37 61.04 5.74Q62.19 6.12 62.95 6.79L62.95 6.79ZM70.50 1.22L70.50 2.71L68.94 2.95L72.76 14.04L73.15 15.39L73.22 15.39L73.61 14.04L77.41 2.94L75.88 2.71L75.88 1.22L81.26 1.22L81.26 2.71L79.89 2.89L74.17 18.28L72.19 18.28L66.47 2.89L65.11 2.71L65.11 1.22L70.50 1.22ZM82.83 18.28L82.83 16.80L84.74 16.48L84.74 7.42L82.83 7.09L82.83 5.60L87.05 5.60L87.05 16.48L88.96 16.80L88.96 18.28L82.83 18.28ZM87.05 0L87.05 2.36L84.74 2.36L84.74 0L87.05 0ZM100.30 6.79L100.42 9.59L98.68 9.59L98.31 8.06Q97.89 7.66 97.25 7.42Q96.61 7.18 95.80 7.18L95.80 7.18Q94.57 7.18 93.97 7.72Q93.38 8.26 93.38 9.02L93.38 9.02Q93.38 9.77 93.90 10.21Q94.43 10.64 96.05 10.98L96.05 10.98Q98.45 11.50 99.62 12.38Q100.79 13.27 100.79 14.75L100.79 14.75Q100.79 16.44 99.43 17.48Q98.06 18.53 95.86 18.53L95.86 18.53Q94.42 18.53 93.27 18.19Q92.12 17.86 91.22 17.23L91.22 17.23L91.21 14.33L92.94 14.33L93.38 16.03Q93.77 16.39 94.46 16.56Q95.14 16.72 95.86 16.72L95.86 16.72Q97.09 16.72 97.79 16.22Q98.48 15.73 98.48 14.92L98.48 14.92Q98.48 14.16 97.90 13.66Q97.32 13.17 95.71 12.81L95.71 12.81Q93.40 12.30 92.23 11.44Q91.05 10.57 91.05 9.09L91.05 9.09Q91.05 7.55 92.37 6.46Q93.69 5.37 95.80 5.37L95.80 5.37Q97.24 5.37 98.39 5.74Q99.54 6.12 100.30 6.79L100.30 6.79ZM102.95 18.28L102.95 16.80L104.86 16.48L104.86 7.42L102.95 7.09L102.95 5.60L107.17 5.60L107.17 16.48L109.08 16.80L109.08 18.28L102.95 18.28ZM107.17 0L107.17 2.36L104.86 2.36L104.86 0L107.17 0ZM110.85 12.08L110.85 11.82Q110.85 9.01 112.37 7.19Q113.89 5.37 116.51 5.37L116.51 5.37Q119.13 5.37 120.66 7.18Q122.19 9 122.19 11.82L122.19 11.82L122.19 12.08Q122.19 14.92 120.67 16.72Q119.14 18.53 116.53 18.53L116.53 18.53Q113.89 18.53 112.37 16.72Q110.85 14.91 110.85 12.08L110.85 12.08ZM113.16 11.82L113.16 12.08Q113.16 14.10 114.01 15.41Q114.86 16.72 116.53 16.72L116.53 16.72Q118.17 16.72 119.03 15.41Q119.88 14.10 119.88 12.08L119.88 12.08L119.88 11.82Q119.88 9.83 119.03 8.51Q118.17 7.18 116.51 7.18L116.51 7.18Q114.84 7.18 114 8.51Q113.16 9.83 113.16 11.82L113.16 11.82ZM123.96 18.28L123.96 16.80L125.87 16.48L125.87 7.42L123.96 7.09L123.96 5.60L127.93 5.60L128.10 7.49Q128.73 6.48 129.69 5.92Q130.64 5.37 131.86 5.37L131.86 5.37Q133.91 5.37 135.04 6.57Q136.16 7.77 136.16 10.28L136.16 10.28L136.16 16.48L138.07 16.80L138.07 18.28L131.94 18.28L131.94 16.80L133.85 16.48L133.85 10.32Q133.85 8.65 133.19 7.95Q132.53 7.24 131.17 7.24L131.17 7.24Q130.17 7.24 129.40 7.72Q128.64 8.20 128.18 9.04L128.18 9.04L128.18 16.48L130.09 16.80L130.09 18.28L123.96 18.28Z" transform="translate(51, 5.36)"></path></svg>